<?xml version="1.0" encoding="UTF-8" standalone="no"?>
<svg
   xmlns:dc="http://purl.org/dc/elements/1.1/"
   xmlns:cc="http://creativecommons.org/ns#"
   xmlns:rdf="http://www.w3.org/1999/02/22-rdf-syntax-ns#"
   xmlns:svg="http://www.w3.org/2000/svg"
   xmlns="http://www.w3.org/2000/svg"
   viewBox="0 0 874.66669 470.66666"
   height="470.66666"
   width="874.66669"
   xml:space="preserve"
   id="svg2"
   version="1.1"><metadata
     id="metadata8"><rdf:RDF><cc:Work
         rdf:about=""><dc:format>image/svg+xml</dc:format><dc:type
           rdf:resource="http://purl.org/dc/dcmitype/StillImage" /></cc:Work></rdf:RDF></metadata><defs
     id="defs6" /><g
     transform="matrix(1.3333333,0,0,-1.3333333,0,470.66667)"
     id="g10"><g
       id="g12"><path
         id="path14"
         style="fill:#ffffff;fill-opacity:1;fill-rule:nonzero;stroke:none"
         d="M 0,353 H 656 V 0 H 0 Z" /></g><g
       transform="translate(432,214.29227)"
       id="g16"><path
         id="path18"
         style="fill:#000000;fill-opacity:1;fill-rule:nonzero;stroke:none"
         d="m 18.163574,-28.292259 z m 9.272728,8.367187 c -0.08452,0.293797 -0.203243,0.553387 -0.356178,0.778765 -0.152937,0.229403 -0.340082,0.422585 -0.561436,0.579544 -0.217329,0.160986 -0.466856,0.283737 -0.748579,0.368254 -0.2777,0.08452 -0.585583,0.126776 -0.923651,0.126776 -0.631866,0 -1.187263,-0.15696 -1.666193,-0.470881 -0.474905,-0.313921 -0.845171,-0.770714 -1.110796,-1.370384 -0.265625,-0.595646 -0.398437,-1.324101 -0.398437,-2.185368 0,-0.861271 0.1308,-1.59375 0.392401,-2.197445 0.2616,-0.603695 0.631864,-1.064514 1.110794,-1.382457 0.478929,-0.31392 1.044389,-0.470879 1.696378,-0.470879 0.59162,0 1.096709,0.104641 1.515271,0.313919 0.422586,0.213306 0.744556,0.513138 0.96591,0.899502 0.225378,0.386364 0.338066,0.843159 0.338066,1.370384 l 0.53125,-0.07848 h -3.187498 v 1.968041 h 5.17365 v -1.55753 c 0,-1.086647 -0.229404,-2.020359 -0.688211,-2.801136 -0.458807,-0.776752 -1.090672,-1.376419 -1.895597,-1.799007 -0.804925,-0.41856 -1.726563,-0.627838 -2.764914,-0.627838 -1.15909,0 -2.177321,0.255562 -3.054688,0.766689 -0.877367,0.515152 -1.561554,1.245621 -2.052557,2.191406 -0.486978,0.94981 -0.730468,2.076706 -0.730468,3.380684 0,1.002129 0.144886,1.895596 0.434658,2.680397 0.293798,0.788824 0.704309,1.456911 1.231535,2.004259 0.527225,0.54735 1.140979,0.963898 1.841264,1.249647 0.700285,0.285748 1.458926,0.428622 2.275923,0.428622 0.700285,0 1.352272,-0.102629 1.955965,-0.307884 0.603693,-0.201231 1.13897,-0.486979 1.605826,-0.857245 0.47088,-0.370264 0.855232,-0.810961 1.153053,-1.322086 0.297823,-0.507103 0.488993,-1.066525 0.573509,-1.678269 z m 3.659889,-8.367187 z m 8.711293,12.363636 h 2.61399 v -8.029118 c 0,-0.901516 -0.215316,-1.690342 -0.64595,-2.366478 -0.426609,-0.676136 -1.024265,-1.203361 -1.792969,-1.581676 -0.768703,-0.374291 -1.66418,-0.561436 -2.686435,-0.561436 -1.02628,0 -1.923767,0.187145 -2.692471,0.561436 -0.768703,0.378315 -1.36636,0.90554 -1.792969,1.581676 -0.426609,0.676136 -0.639915,1.464962 -0.639915,2.366478 v 8.029118 h 2.613991 v -7.805752 c 0,-0.470882 0.102627,-0.889442 0.307884,-1.255684 0.209282,-0.366238 0.503078,-0.653999 0.881393,-0.863281 0.378315,-0.209278 0.819008,-0.313919 1.322087,-0.313919 0.507103,0 0.947799,0.104641 1.32209,0.313919 0.378315,0.209282 0.670097,0.497043 0.875355,0.863281 0.209278,0.366242 0.313919,0.784802 0.313919,1.255684 z m 3.690075,-12.363636 z m 3.688564,12.363636 v -12.363636 h -2.613991 v 12.363636 z m 1.076084,-12.363636 z m 3.205612,0 h -2.801136 l 4.268109,12.363636 h 3.36861 l 4.262073,-12.363636 h -2.801136 l -3.096946,9.538353 h -0.09659 l -3.102982,-9.538353 z m -0.175072,4.85973 h 6.616478 v -2.040482 h -6.616478 z m 9.40403,-4.85973 z m 7.781609,8.807884 c -0.0483,0.486979 -0.25557,0.865294 -0.621811,1.134943 -0.366234,0.26965 -0.863274,0.404474 -1.491119,0.404474 -0.426613,0 -0.786812,-0.06037 -1.080613,-0.181108 -0.2938,-0.116715 -0.519172,-0.279711 -0.676132,-0.488991 -0.152939,-0.20928 -0.229408,-0.446733 -0.229408,-0.712358 -0.008,-0.221356 0.03824,-0.414536 0.138855,-0.579545 0.104637,-0.165012 0.247513,-0.307884 0.428619,-0.428623 0.181107,-0.116714 0.390389,-0.219341 0.627838,-0.307884 0.23745,-0.08451 0.491005,-0.156959 0.760659,-0.217327 l 1.110794,-0.265625 c 0.539299,-0.120739 1.034324,-0.281727 1.485084,-0.482956 0.45076,-0.201229 0.841149,-0.448746 1.171166,-0.742542 0.330017,-0.293797 0.585579,-0.639916 0.766693,-1.038353 0.185127,-0.398438 0.279709,-0.855232 0.283729,-1.370384 -0.004,-0.756627 -0.197204,-1.41264 -0.579544,-1.968041 -0.378311,-0.551372 -0.925659,-0.979992 -1.642044,-1.285866 -0.712356,-0.301845 -1.571609,-0.45277 -2.577766,-0.45277 -0.998108,0 -1.867424,0.152935 -2.60796,0.458809 -0.736503,0.30587 -1.312023,0.75864 -1.726562,1.358307 -0.410511,0.603695 -0.625828,1.350262 -0.645951,2.239704 h 2.529477 c 0.02817,-0.414536 0.146896,-0.760654 0.356178,-1.038353 0.213302,-0.273674 0.49704,-0.480942 0.851204,-0.621803 0.358192,-0.136837 0.762672,-0.205258 1.213424,-0.205258 0.442711,0 0.827057,0.0644 1.153054,0.193184 0.330024,0.128788 0.585586,0.307881 0.766693,0.537285 0.181106,0.229405 0.27166,0.493015 0.27166,0.79084 0,0.277699 -0.0825,0.511124 -0.247513,0.700283 -0.160988,0.18916 -0.398438,0.350144 -0.712357,0.482956 -0.309898,0.132813 -0.690223,0.253552 -1.140983,0.362213 l -1.346237,0.33807 c -1.042374,0.253552 -1.865407,0.649975 -2.469101,1.189274 -0.603695,0.539299 -0.903527,1.265743 -0.899502,2.179333 -0.004,0.748581 0.195194,1.402582 0.597656,1.962004 0.406487,0.559423 0.963898,0.996093 1.67223,1.310014 0.708336,0.313921 1.51326,0.470881 2.414772,0.470881 0.91761,0 1.718513,-0.15696 2.402695,-0.470881 0.688209,-0.313921 1.223487,-0.750591 1.605827,-1.310014 0.382339,-0.559422 0.579544,-1.207386 0.591621,-1.943892 z" /></g><g
       transform="translate(432,214.29227)"
       id="g20"><text
         id="text24"
         style="font-variant:normal;font-weight:normal;font-size:17px;font-family:Arial;-inkscape-font-specification:Arial;writing-mode:lr-tb;fill:#000000;fill-opacity:1;fill-rule:nonzero;stroke:none"
         transform="matrix(1,0,0,-1,18.163574,-28.292259)"><tspan
           id="tspan22"
           y="0"
           x="0 12.931101 25.330952 30.100132 42.534695">GUIAS</tspan></text>
</g><g
       transform="translate(234,214.29227)"
       id="g26"><path
         id="path28"
         style="fill:#000000;fill-opacity:1;fill-rule:nonzero;stroke:none"
         d="m 12.537109,-28.292259 z m 7.781605,8.807884 c -0.0483,0.486979 -0.255564,0.865294 -0.621803,1.134943 -0.36624,0.26965 -0.863281,0.404474 -1.491123,0.404474 -0.426609,0 -0.786812,-0.06037 -1.080611,-0.181108 -0.293796,-0.116715 -0.519174,-0.279711 -0.676136,-0.488991 -0.152935,-0.20928 -0.229402,-0.446733 -0.229402,-0.712358 -0.0081,-0.221356 0.03823,-0.414536 0.138849,-0.579545 0.104639,-0.165012 0.247513,-0.307884 0.428621,-0.428623 0.181109,-0.116714 0.390389,-0.219341 0.62784,-0.307884 0.237454,-0.08451 0.491005,-0.156959 0.760655,-0.217327 l 1.110796,-0.265625 c 0.539299,-0.120739 1.034326,-0.281727 1.485084,-0.482956 0.450758,-0.201229 0.841147,-0.448746 1.171166,-0.742542 0.330019,-0.293797 0.585581,-0.639916 0.766689,-1.038353 0.185133,-0.398438 0.279713,-0.855232 0.283735,-1.370384 -0.004,-0.756627 -0.197204,-1.41264 -0.579544,-1.968041 -0.378315,-0.551372 -0.925663,-0.979992 -1.642046,-1.285866 -0.712358,-0.301845 -1.571615,-0.45277 -2.57777,-0.45277 -0.998106,0 -1.867424,0.152935 -2.607954,0.458809 -0.736505,0.30587 -1.312026,0.75864 -1.726562,1.358307 -0.410512,0.603695 -0.625829,1.350262 -0.645953,2.239704 h 2.529476 c 0.02817,-0.414536 0.146898,-0.760654 0.356179,-1.038353 0.213304,-0.273674 0.49704,-0.480942 0.851206,-0.621803 0.358192,-0.136837 0.762666,-0.205258 1.213424,-0.205258 0.442709,0 0.827059,0.0644 1.153054,0.193184 0.330019,0.128788 0.585582,0.307881 0.766691,0.537285 0.181108,0.229405 0.271662,0.493015 0.271662,0.79084 0,0.277699 -0.08251,0.511124 -0.247515,0.700283 -0.160986,0.18916 -0.398438,0.350144 -0.712359,0.482956 -0.309896,0.132813 -0.690221,0.253552 -1.140979,0.362213 l -1.346236,0.33807 c -1.042376,0.253552 -1.865411,0.649975 -2.469105,1.189274 -0.603693,0.539299 -0.903528,1.265743 -0.899503,2.179333 -0.004,0.748581 0.195194,1.402582 0.597656,1.962004 0.406488,0.559423 0.963898,0.996093 1.672231,1.310014 0.708333,0.313921 1.513257,0.470881 2.414773,0.470881 0.917612,0 1.718511,-0.15696 2.402698,-0.470881 0.688212,-0.313921 1.223486,-0.750591 1.605824,-1.310014 0.382339,-0.559422 0.579546,-1.207386 0.591619,-1.943892 z m 3.358044,-8.807884 z m 1.074573,0 v 12.363636 h 8.330967 v -2.155184 h -5.716974 v -2.946024 h 5.288351 v -2.155182 h -5.288351 v -2.952061 h 5.741121 v -2.155185 z m 9.334607,0 z m 9.272727,8.367187 c -0.08452,0.293797 -0.203243,0.553387 -0.356178,0.778765 -0.152935,0.229403 -0.34008,0.422585 -0.561436,0.579544 -0.217327,0.160986 -0.466854,0.283737 -0.74858,0.368254 -0.277699,0.08452 -0.585579,0.126776 -0.923649,0.126776 -0.631867,0 -1.187264,-0.15696 -1.666195,-0.470881 -0.474903,-0.313921 -0.845169,-0.770714 -1.110794,-1.370384 -0.265625,-0.595646 -0.398438,-1.324101 -0.398438,-2.185368 0,-0.861271 0.130799,-1.59375 0.392399,-2.197445 0.261601,-0.603695 0.631867,-1.064514 1.110798,-1.382457 0.478931,-0.31392 1.044388,-0.470879 1.696377,-0.470879 0.591617,0 1.09671,0.104641 1.51527,0.313919 0.422585,0.213306 0.744553,0.513138 0.965908,0.899502 0.22538,0.386364 0.33807,0.843159 0.33807,1.370384 l 0.53125,-0.07848 h -3.1875 v 1.968041 h 5.173649 v -1.55753 c 0,-1.086647 -0.229405,-2.020359 -0.68821,-2.801136 -0.458805,-0.776752 -1.090671,-1.376419 -1.895595,-1.799007 -0.804924,-0.41856 -1.726563,-0.627838 -2.764916,-0.627838 -1.159092,0 -2.177318,0.255562 -3.054687,0.766689 -0.877369,0.515152 -1.561554,1.245621 -2.052559,2.191406 -0.486981,0.94981 -0.730469,2.076706 -0.730469,3.380684 0,1.002129 0.144886,1.895596 0.434662,2.680397 0.293796,0.788824 0.704308,1.456911 1.231533,2.004259 0.527225,0.54735 1.14098,0.963898 1.841263,1.249647 0.700283,0.285748 1.458927,0.428622 2.275924,0.428622 0.700284,0 1.352273,-0.102629 1.955967,-0.307884 0.603695,-0.201231 1.13897,-0.486979 1.605824,-0.857245 0.470882,-0.370264 0.855232,-0.810961 1.153053,-1.322086 0.297821,-0.507103 0.488991,-1.066525 0.573509,-1.678269 z m 3.65989,-8.367187 z m 8.711292,12.363636 h 2.613991 v -8.029118 c 0,-0.901516 -0.215317,-1.690342 -0.645951,-2.366478 -0.426609,-0.676136 -1.024265,-1.203361 -1.792968,-1.581676 -0.768704,-0.374291 -1.664181,-0.561436 -2.686436,-0.561436 -1.026279,0 -1.923767,0.187145 -2.692471,0.561436 -0.768703,0.378315 -1.366359,0.90554 -1.792968,1.581676 -0.426609,0.676136 -0.639916,1.464962 -0.639916,2.366478 v 8.029118 h 2.613991 v -7.805752 c 0,-0.470882 0.102627,-0.889442 0.307884,-1.255684 0.209282,-0.366238 0.503079,-0.653999 0.881394,-0.863281 0.378315,-0.209278 0.819008,-0.313919 1.322086,-0.313919 0.507103,0 0.9478,0.104641 1.32209,0.313919 0.378315,0.209282 0.670097,0.497043 0.875355,0.863281 0.209278,0.366242 0.313919,0.784802 0.313919,1.255684 z m 3.690075,-12.363636 z m 1.074573,0 v 12.363636 h 4.877842 c 0.933709,0 1.730584,-0.167021 2.390625,-0.501065 0.664063,-0.330018 1.169152,-0.798889 1.515267,-1.406606 0.350143,-0.603693 0.525215,-1.314037 0.525215,-2.131037 0,-0.821022 -0.177086,-1.527344 -0.53125,-2.118961 -0.354164,-0.587597 -0.867302,-1.038353 -1.539414,-1.352272 -0.66809,-0.313923 -1.477043,-0.470883 -2.426849,-0.470883 h -3.26598 v 2.100853 h 2.843396 c 0.499054,0 0.913589,0.06842 1.243606,0.205254 0.330017,0.136837 0.575516,0.342094 0.736504,0.615768 0.165008,0.273674 0.247513,0.613755 0.247513,1.020241 0,0.410511 -0.0825,0.75663 -0.247513,1.038353 -0.160988,0.281725 -0.408501,0.495029 -0.742539,0.639916 -0.330024,0.14891 -0.746574,0.223365 -1.249649,0.223365 h -1.762783 v -10.226562 z m 6.676846,5.626419 3.0728,-5.626419 H 67.35849 l -3.006393,5.626419 z m 3.404831,-5.626419 z m 12.436081,6.18182 c 0,-1.348248 -0.255562,-2.495266 -0.766693,-3.441052 -0.507103,-0.945789 -1.199333,-1.668209 -2.076706,-2.167259 -0.873345,-0.495029 -1.855347,-0.742542 -2.946022,-0.742542 -1.098717,0 -2.084748,0.249527 -2.958092,0.748577 -0.873344,0.499054 -1.563568,1.221474 -2.070671,2.167259 -0.507103,0.945786 -0.760651,2.09079 -0.760651,3.435017 0,1.348247 0.253548,2.495262 0.760651,3.441049 0.507103,0.945788 1.197327,1.666193 2.070671,2.161221 0.873344,0.499054 1.859375,0.748581 2.958092,0.748581 1.090675,0 2.072677,-0.249527 2.946022,-0.748581 0.877373,-0.495028 1.569603,-1.215433 2.076706,-2.161221 0.511131,-0.945787 0.766693,-2.092802 0.766693,-3.441049 z m -2.650215,0 c 0,0.87334 -0.130799,1.609848 -0.392403,2.209514 -0.257576,0.599671 -0.621803,1.054451 -1.092682,1.364348 -0.470878,0.309896 -1.022255,0.464844 -1.654121,0.464844 -0.631867,0 -1.183235,-0.154948 -1.654114,-0.464844 -0.470879,-0.309897 -0.83712,-0.764677 -1.098724,-1.364348 -0.257576,-0.599666 -0.386368,-1.336174 -0.386368,-2.209514 0,-0.873345 0.128792,-1.609852 0.386368,-2.209519 0.261604,-0.599666 0.627845,-1.054451 1.098724,-1.364345 0.470879,-0.309895 1.022247,-0.464844 1.654114,-0.464844 0.631866,0 1.183243,0.154949 1.654121,0.464844 0.470879,0.309894 0.835106,0.764679 1.092682,1.364345 0.261604,0.599667 0.392403,1.336174 0.392403,2.209519 z m 3.511985,-6.18182 z m 7.781609,8.807884 c -0.0483,0.486979 -0.255569,0.865294 -0.621811,1.134943 -0.366234,0.26965 -0.863274,0.404474 -1.491119,0.404474 -0.426613,0 -0.786812,-0.06037 -1.080612,-0.181108 -0.293801,-0.116715 -0.519173,-0.279711 -0.676133,-0.488991 -0.152939,-0.20928 -0.229408,-0.446733 -0.229408,-0.712358 -0.008,-0.221356 0.03824,-0.414536 0.138855,-0.579545 0.104637,-0.165012 0.247513,-0.307884 0.428619,-0.428623 0.181107,-0.116714 0.390389,-0.219341 0.627839,-0.307884 0.237449,-0.08451 0.491005,-0.156959 0.760658,-0.217327 l 1.110794,-0.265625 c 0.539299,-0.120739 1.034325,-0.281727 1.485084,-0.482956 0.45076,-0.201229 0.841149,-0.448746 1.171166,-0.742542 0.330017,-0.293797 0.585579,-0.639916 0.766693,-1.038353 0.185127,-0.398438 0.279709,-0.855232 0.28373,-1.370384 -0.004,-0.756627 -0.197205,-1.41264 -0.579544,-1.968041 -0.378312,-0.551372 -0.92566,-0.979992 -1.642045,-1.285866 -0.712356,-0.301845 -1.571609,-0.45277 -2.577766,-0.45277 -0.998108,0 -1.867424,0.152935 -2.607956,0.458809 -0.736504,0.30587 -1.312027,0.75864 -1.726562,1.358307 -0.410515,0.603695 -0.625832,1.350262 -0.645951,2.239704 h 2.529473 c 0.02818,-0.414536 0.146896,-0.760654 0.356178,-1.038353 0.213303,-0.273674 0.49704,-0.480942 0.851204,-0.621803 0.358192,-0.136837 0.762672,-0.205258 1.213425,-0.205258 0.44271,0 0.827056,0.0644 1.153053,0.193184 0.330025,0.128788 0.585586,0.307881 0.766693,0.537285 0.181106,0.229405 0.27166,0.493015 0.27166,0.79084 0,0.277699 -0.08251,0.511124 -0.247513,0.700283 -0.160988,0.18916 -0.398438,0.350144 -0.712357,0.482956 -0.309898,0.132813 -0.690223,0.253552 -1.140983,0.362213 l -1.346237,0.33807 c -1.042374,0.253552 -1.86541,0.649975 -2.469101,1.189274 -0.603691,0.539299 -0.903527,1.265743 -0.899506,2.179333 -0.004,0.748581 0.195198,1.402582 0.597656,1.962004 0.406487,0.559423 0.963898,0.996093 1.672234,1.310014 0.708336,0.313921 1.51326,0.470881 2.414772,0.470881 0.91761,0 1.718513,-0.15696 2.402695,-0.470881 0.688209,-0.313921 1.223487,-0.750591 1.605827,-1.310014 0.382339,-0.559422 0.579544,-1.207386 0.591621,-1.943892 z m 7.29261,-8.807884 z m 3.308238,12.363636 2.98828,-9.393467 h 0.11471 l 2.99431,9.393467 h 2.89773 l -4.26208,-12.363636 h -3.3686 l -4.268115,12.363636 z m 9.40856,-12.363636 z m 3.68857,12.363636 v -12.363636 h -2.61399 v 12.363636 z m 1.07608,-12.363636 z m 3.20561,0 h -2.80114 l 4.26811,12.363636 h 3.36861 l 4.26208,-12.363636 h -2.80114 l -3.09695,9.538353 h -0.0966 l -3.10298,-9.538353 z m -0.17507,4.85973 h 6.61648 v -2.040482 h -6.61648 z m 9.1052,-4.85973 z m 9.27272,8.367187 c -0.0845,0.293797 -0.20323,0.553387 -0.35617,0.778765 -0.15294,0.229403 -0.34007,0.422585 -0.56143,0.579544 -0.21733,0.160986 -0.46686,0.283737 -0.74858,0.368254 -0.2777,0.08452 -0.58559,0.126776 -0.92366,0.126776 -0.63186,0 -1.18726,-0.15696 -1.66619,-0.470881 -0.4749,-0.313921 -0.84517,-0.770714 -1.11079,-1.370384 -0.26563,-0.595646 -0.39844,-1.324101 -0.39844,-2.185368 0,-0.861271 0.1308,-1.59375 0.3924,-2.197445 0.26159,-0.603695 0.63186,-1.064514 1.11079,-1.382457 0.47893,-0.31392 1.04439,-0.470879 1.69638,-0.470879 0.59163,0 1.09671,0.104641 1.51527,0.313919 0.4226,0.213306 0.74456,0.513138 0.96592,0.899502 0.22537,0.386364 0.33805,0.843159 0.33805,1.370384 l 0.53125,-0.07848 h -3.1875 v 1.968041 h 5.17367 v -1.55753 c 0,-1.086647 -0.22941,-2.020359 -0.68822,-2.801136 -0.45882,-0.776752 -1.09069,-1.376419 -1.8956,-1.799007 -0.80492,-0.41856 -1.72656,-0.627838 -2.76491,-0.627838 -1.1591,0 -2.17732,0.255562 -3.05469,0.766689 -0.87736,0.515152 -1.56155,1.245621 -2.05256,2.191406 -0.48699,0.94981 -0.73047,2.076706 -0.73047,3.380684 0,1.002129 0.14488,1.895596 0.43466,2.680397 0.29381,0.788824 0.70432,1.456911 1.23154,2.004259 0.52722,0.54735 1.14097,0.963898 1.84126,1.249647 0.70029,0.285748 1.45892,0.428622 2.27592,0.428622 0.70029,0 1.35228,-0.102629 1.95597,-0.307884 0.6037,-0.201231 1.13897,-0.486979 1.60582,-0.857245 0.47088,-0.370264 0.85524,-0.810961 1.15306,-1.322086 0.29782,-0.507103 0.48898,-1.066525 0.5735,-1.678269 z m 3.6599,-8.367187 z m 1.07457,0 v 12.363636 h 8.33096 v -2.155184 h -5.71697 v -2.946024 h 5.28835 v -2.155182 h -5.28835 v -2.952061 h 5.74112 v -2.155185 z m 9.33461,0 z m 1.07457,12.363636 h 3.22372 l 3.40483,-8.306816 h 0.14488 l 3.40483,8.306816 h 3.22373 v -12.363636 h -2.53551 v 8.04723 h -0.10263 l -3.19957,-7.986863 h -1.72656 l -3.19959,8.017048 h -0.10261 v -8.077415 h -2.53552 z" /></g><g
       transform="translate(234,214.29227)"
       id="g30"><text
         id="text34"
         style="font-variant:normal;font-weight:normal;font-size:17px;font-family:Arial;-inkscape-font-specification:Arial;writing-mode:lr-tb;fill:#000000;fill-opacity:1;fill-rule:nonzero;stroke:none"
         transform="matrix(1,0,0,-1,12.537109,-28.292259)"><tspan
           id="tspan32"
           y="0"
           x="0 11.13211 21.545816 34.476917 46.87677 58.03302 71.32634 82.45845 86.400558 99.114334 103.88351 116.01926 128.95036 139.36406">SEGUROS VIAGEM</tspan></text>
</g><g
       transform="translate(135,214.29829)"
       id="g36"><path
         id="path38"
         style="fill:#000000;fill-opacity:1;fill-rule:nonzero;stroke:none"
         d="m 19.026855,-28.298294 z m 1.074574,0 v 12.363636 h 2.613993 v -5.101208 h 5.306461 v 5.101208 h 2.607956 v -12.363636 h -2.607956 v 5.107246 h -5.306461 v -5.107246 z m 11.60902,0 z m 12.436081,6.18182 c 0,-1.348248 -0.255565,-2.495266 -0.766693,-3.441052 -0.507099,-0.945789 -1.199333,-1.668209 -2.076702,-2.167259 -0.873345,-0.495029 -1.855351,-0.742542 -2.946022,-0.742542 -1.098721,0 -2.084755,0.249527 -2.958099,0.748577 -0.873341,0.499054 -1.563565,1.221474 -2.070668,2.167259 -0.507103,0.945786 -0.760654,2.09079 -0.760654,3.435017 0,1.348247 0.253551,2.495262 0.760654,3.441049 0.507103,0.945788 1.197327,1.666193 2.070668,2.161221 0.873344,0.499054 1.859378,0.748581 2.958099,0.748581 1.090671,0 2.072677,-0.249527 2.946022,-0.748581 0.877369,-0.495028 1.569603,-1.215433 2.076702,-2.161221 0.511128,-0.945787 0.766693,-2.092802 0.766693,-3.441049 z m -2.650215,0 c 0,0.87334 -0.130798,1.609848 -0.392399,2.209514 -0.257576,0.599671 -0.621803,1.054451 -1.092686,1.364348 -0.470882,0.309896 -1.022254,0.464844 -1.654117,0.464844 -0.631867,0 -1.183239,-0.154948 -1.654122,-0.464844 -0.470882,-0.309897 -0.83712,-0.764677 -1.09872,-1.364348 -0.257576,-0.599666 -0.386364,-1.336174 -0.386364,-2.209514 0,-0.873345 0.128788,-1.609852 0.386364,-2.209519 0.2616,-0.599666 0.627838,-1.054451 1.09872,-1.364345 0.470883,-0.309895 1.022255,-0.464844 1.654122,-0.464844 0.631863,0 1.183235,0.154949 1.654117,0.464844 0.470883,0.309894 0.83511,0.764679 1.092686,1.364345 0.261601,0.599667 0.392399,1.336174 0.392399,2.209519 z m 3.511986,-6.18182 z m 1.074573,12.363636 h 3.223721 l 3.404831,-8.306816 h 0.144886 l 3.404831,8.306816 h 3.22372 v -12.363636 h -2.535511 v 8.04723 h -0.102627 l -3.199573,-7.986862 h -1.726563 l -3.199577,8.017047 h -0.102627 v -8.077415 h -2.535511 z m 14.481091,-12.363636 z m 1.074573,0 v 12.363636 h 8.330967 v -2.155184 h -5.716972 v -2.946024 h 5.288353 v -2.155182 h -5.288353 v -2.95206 h 5.741119 v -2.155186 z" /></g><g
       transform="translate(135,214.29829)"
       id="g40"><text
         id="text44"
         style="font-variant:normal;font-weight:normal;font-size:17px;font-family:Arial;-inkscape-font-specification:Arial;writing-mode:lr-tb;fill:#000000;fill-opacity:1;fill-rule:nonzero;stroke:none"
         transform="matrix(1,0,0,-1,19.026855,-28.298294)"><tspan
           id="tspan42"
           y="0"
           x="0 12.683598 25.976917 41.528057">HOME</tspan></text>
</g><g
       transform="rotate(-90,303,-89)"
       id="g46"><path
         id="path48"
         style="fill:#000000;fill-opacity:1;fill-rule:nonzero;stroke:none"
         d="m 0,31 h 31 v 1 H 0 Z" /></g><g
       transform="rotate(-90,201,13)"
       id="g50"><path
         id="path52"
         style="fill:#000000;fill-opacity:1;fill-rule:nonzero;stroke:none"
         d="m 0,31 h 31 v 1 H 0 Z" /></g></g></svg>